<svg id="Layer_2" data-name="Layer 2" xmlns="http://www.w3.org/2000/svg" viewBox="0 0 175.19115 204.11896"><defs><style>.cls-1{fill:#fff;}</style></defs><path class="cls-1" d="M211.39728,68.00372a.49634.49634,0,0,0-.54932.0625l-56.17248,47.18554H93.4726L37.30011,68.06622a.49989.49989,0,0,0-.82031.41894l7.8833,109.24512.0011.00287c.00262.0329.02667.05963.03571.09149a.4976.4976,0,0,0,.07678.18542l.00262.00635,67.975,80.53913a.48211.48211,0,0,0,.045.08392l11.17969,13.25a.49956.49956,0,0,0,.76416,0l11.18994-13.25c.00842-.01.01056-.02319.01813-.03369l68.017-80.58936.00262-.00635a.4976.4976,0,0,0,.07678-.18542c.009-.03186.03308-.05859.03571-.09149l.0011-.00287,7.88379-109.24512A.50054.50054,0,0,0,211.39728,68.00372Zm-173.835,1.58886L92.59894,115.824l-47.332,60.54ZM50.58991,183.70635,46.15515,178.452l53.852,10.335-9.67041,42.01172ZM124.074,270.77227l-10.43781-12.367,10.42511-7.17108,10.44477,7.17785Zm-.0166-20.8916-4.81543-5.27832,4.82422-4.55371,4.82422,4.54492Zm72.05-64.45593-38.29609,45.3739-9.67041-42.01172,53.8515-10.335Zm-48.66425,2.47741a.49977.49977,0,0,0-.39307.60352l9.95514,43.2486-21.85083,25.88964-10.34179-7.10662,5.14813-5.63318a.50025.50025,0,0,0-.02637-.70117l-5.53027-5.21a.50029.50029,0,0,0-.71826.04l-5.4878,5.17969a.49994.49994,0,0,0-.02636.7002l5.134,5.62768L112.988,257.6372,91.14276,231.75445l9.9552-43.24878a.49976.49976,0,0,0-.39306-.60352l-54.945-10.54492L93.534,116.25176h61.08008l47.77362,61.10547Zm55.4375-11.53808-47.33154-60.54,55.03662-46.23145Z" transform="translate(-36.47847 -67.94823)"/></svg>