<svg id="Layer_4" data-name="Layer 4" xmlns="http://www.w3.org/2000/svg" viewBox="0 0 468.04688 116.62305"><path d="M433.44513,137.82546h-15.293V190.388H404.785v-52.5625h-10.3086V131.595l10.3086-4.07813v-4.07812q0-11.10058,5.21093-16.4541,5.21046-5.35254,15.916-5.35254a42.48739,42.48739,0,0,1,13.82031,2.32226l-3.51172,10.082a30.70793,30.70793,0,0,0-9.40234-1.58593q-4.53222,0-6.59863,2.80371-2.06837,2.80371-2.06739,8.41113v4.07813h15.293Z" transform="translate(-394.47638 -101.6321)"/><path d="M501.0506,158.95241q0,15.3501-7.873,23.959-7.87353,8.61036-21.91992,8.60938a30.02769,30.02769,0,0,1-15.51953-3.96484,26.16021,26.16021,0,0,1-10.36523-11.38477,38.76723,38.76723,0,0,1-3.625-17.21875q0-15.23584,7.8164-23.78906,7.81641-8.55176,22.03321-8.55274,13.59375,0,21.52343,8.751Q501.05012,144.11256,501.0506,158.95241Zm-45.5957,0q0,21.69434,16.0293,21.69336,15.85839,0,15.85937-21.69336,0-21.46582-15.97266-21.4668-8.38329,0-12.14941,5.55078Q455.45392,148.58816,455.4549,158.95241Z" transform="translate(-394.47638 -101.6321)"/><path d="M531.66877,158.386l-21.01368-30.64257h15.17969l14.27344,21.91992,14.38672-21.91992h15.0664L548.491,158.386l22.14649,32.002H555.57111l-15.46289-23.44922L524.702,190.388H509.63556Z" transform="translate(-394.47638 -101.6321)"/><path d="M625.10138,172.54616q0,9.17579-6.68359,14.0752-6.68409,4.8999-19.14453,4.89941-12.51857,0-20.10742-3.79492V176.2278q11.04492,5.09766,20.56054,5.09766,12.29,0,12.291-7.41993a5.87874,5.87874,0,0,0-1.35938-3.96484,16.1114,16.1114,0,0,0-4.47461-3.28516,77.17643,77.17643,0,0,0-8.666-3.85156q-10.81933-4.19091-14.6416-8.38281a15.50891,15.50891,0,0,1-3.82325-10.875,14.28358,14.28358,0,0,1,6.48536-12.48926q6.48486-4.44581,17.64355-4.44629a49.98152,49.98152,0,0,1,20.90039,4.47461l-4.30469,10.02539q-10.13964-4.19091-17.04882-4.1914-10.53516,0-10.53516,6.0039a6.0383,6.0383,0,0,0,2.74707,4.98438q2.74656,2.03906,11.97949,5.60742a54.83685,54.83685,0,0,1,11.27149,5.49414,16.43092,16.43092,0,0,1,5.21093,5.749A16.6412,16.6412,0,0,1,625.10138,172.54616Z" transform="translate(-394.47638 -101.6321)"/><path d="M692.25373,190.388l-8.09961-29.22657q-1.47363-4.64355-5.32422-21.58007h-.50977q-3.28565,15.293-5.21093,21.69336L664.783,190.388H650.05646l-17.55859-62.64453h13.59375l7.98633,30.86914q2.71875,11.44189,3.85156,19.59765h.33984q.56541-4.13379,1.72754-9.4873,1.16016-5.35254,2.01074-8.01465l9.51563-32.96484h14.61328l9.23242,32.96484q.84962,2.77589,2.124,8.49609a65.44564,65.44564,0,0,1,1.501,8.89258h.45313a173.76522,173.76522,0,0,1,3.96484-19.48437l8.09961-30.86914h13.36719L707.20685,190.388Z" transform="translate(-394.47638 -101.6321)"/><path d="M776.22736,190.388l-2.66211-8.72266h-.45313q-4.53222,5.72168-9.11914,7.78809a28.847,28.847,0,0,1-11.78125,2.06738q-9.2329,0-14.415-4.98438-5.18262-4.98339-5.18262-14.10351,0-9.68554,7.19336-14.61328,7.19238-4.92774,21.91992-5.38086l10.81836-.33985V148.7571q0-6.00294-2.80371-8.97754-2.80371-2.97363-8.69434-2.97363a30.08052,30.08052,0,0,0-9.23242,1.416,69.83009,69.83009,0,0,0-8.49609,3.3418l-4.30469-9.51563a46.359,46.359,0,0,1,11.1582-4.0498,51.3623,51.3623,0,0,1,11.44141-1.3877q11.95019,0,18.04,5.21094,6.08789,5.21191,6.08886,16.36914V190.388Zm-19.82422-9.0625q7.24951,0,11.63965-4.04981,4.38867-4.04883,4.38965-11.35644v-5.4375l-8.043.33984q-9.40284.33984-13.67871,3.14356-4.27734,2.80371-4.27637,8.581a8.37,8.37,0,0,0,2.49219,6.48535Q751.41828,181.32546,756.40314,181.32546Z" transform="translate(-394.47638 -101.6321)"/><path d="M837.4881,191.52077q-11.89454,0-18.46484-8.55274h-.793q.79248,7.93067.793,9.62891v25.6582H805.71271V127.74343h10.76172q.45264,1.75633,1.86914,8.38281h.67969q6.23-9.51562,18.6914-9.51563,11.72461,0,18.26661,8.4961t6.542,23.8457q0,15.3501-6.65528,23.959Q849.21173,191.52175,837.4881,191.52077Zm-3.22851-54.03516q-7.93066,0-11.583,4.64453-3.65332,4.645-3.65332,14.83985v1.98242q0,11.4419,3.625,16.56738,3.624,5.127,11.83789,5.126a12.01762,12.01762,0,0,0,10.64844-5.66406q3.73827-5.66308,3.73828-16.14258,0-10.53516-3.71-15.94434Q841.45245,137.48659,834.25959,137.48561Z" transform="translate(-394.47638 -101.6321)"/></svg>