<svg width="157" height="48" viewBox="0 0 157 48" fill="none" xmlns="http://www.w3.org/2000/svg">
    <path d="M0 19.2C0 12.4794 0 9.11905 1.30792 6.55211C2.4584 4.29417 4.29417 2.4584 6.55211 1.30792C9.11905 0 12.4794 0 19.2 0H137.8C144.521 0 147.881 0 150.448 1.30792C152.706 2.4584 154.542 4.29417 155.692 6.55211C157 9.11905 157 12.4794 157 19.2V28.8C157 35.5206 157 38.8809 155.692 41.4479C154.542 43.7058 152.706 45.5416 150.448 46.6921C147.881 48 144.521 48 137.8 48H19.2C12.4794 48 9.11905 48 6.55211 46.6921C4.29417 45.5416 2.4584 43.7058 1.30792 41.4479C0 38.8809 0 35.5206 0 28.8V19.2Z" fill="#E58A4C"/>
    <path d="M22.688 30.16C21.5573 30.16 20.5333 29.9147 19.616 29.424C18.7093 28.9227 17.9947 28.2347 17.472 27.36C16.96 26.4853 16.704 25.4987 16.704 24.4C16.704 23.3013 16.9653 22.3147 17.488 21.44C18.0107 20.5653 18.7253 19.8827 19.632 19.392C20.5493 18.8907 21.5733 18.64 22.704 18.64C23.6213 18.64 24.4587 18.8 25.216 19.12C25.9733 19.44 26.6133 19.904 27.136 20.512L25.792 21.776C24.9813 20.9013 23.984 20.464 22.8 20.464C22.032 20.464 21.344 20.6347 20.736 20.976C20.128 21.3067 19.6533 21.7707 19.312 22.368C18.9707 22.9653 18.8 23.6427 18.8 24.4C18.8 25.1573 18.9707 25.8347 19.312 26.432C19.6533 27.0293 20.128 27.4987 20.736 27.84C21.344 28.1707 22.032 28.336 22.8 28.336C23.984 28.336 24.9813 27.8933 25.792 27.008L27.136 28.288C26.6133 28.896 25.968 29.36 25.2 29.68C24.4427 30 23.6053 30.16 22.688 30.16ZM32.4645 30.112C31.6005 30.112 30.8218 29.9253 30.1285 29.552C29.4352 29.1787 28.8912 28.6613 28.4965 28C28.1125 27.328 27.9205 26.5707 27.9205 25.728C27.9205 24.8853 28.1125 24.1333 28.4965 23.472C28.8912 22.8107 29.4352 22.2933 30.1285 21.92C30.8218 21.5467 31.6005 21.36 32.4645 21.36C33.3392 21.36 34.1232 21.5467 34.8165 21.92C35.5098 22.2933 36.0485 22.8107 36.4325 23.472C36.8272 24.1333 37.0245 24.8853 37.0245 25.728C37.0245 26.5707 36.8272 27.328 36.4325 28C36.0485 28.6613 35.5098 29.1787 34.8165 29.552C34.1232 29.9253 33.3392 30.112 32.4645 30.112ZM32.4645 28.4C33.2005 28.4 33.8085 28.1547 34.2885 27.664C34.7685 27.1733 35.0085 26.528 35.0085 25.728C35.0085 24.928 34.7685 24.2827 34.2885 23.792C33.8085 23.3013 33.2005 23.056 32.4645 23.056C31.7285 23.056 31.1205 23.3013 30.6405 23.792C30.1712 24.2827 29.9365 24.928 29.9365 25.728C29.9365 26.528 30.1712 27.1733 30.6405 27.664C31.1205 28.1547 31.7285 28.4 32.4645 28.4ZM43.785 21.36C44.8623 21.36 45.7263 21.6747 46.377 22.304C47.0277 22.9333 47.353 23.8667 47.353 25.104V30H45.353V25.36C45.353 24.6133 45.177 24.0533 44.825 23.68C44.473 23.296 43.9717 23.104 43.321 23.104C42.585 23.104 42.0037 23.328 41.577 23.776C41.1503 24.2133 40.937 24.848 40.937 25.68V30H38.937V21.456H40.841V22.56C41.1717 22.1653 41.5877 21.8667 42.089 21.664C42.5903 21.4613 43.1557 21.36 43.785 21.36ZM54.7381 21.36C55.8155 21.36 56.6795 21.6747 57.3301 22.304C57.9808 22.9333 58.3061 23.8667 58.3061 25.104V30H56.3061V25.36C56.3061 24.6133 56.1301 24.0533 55.7781 23.68C55.4261 23.296 54.9248 23.104 54.2741 23.104C53.5381 23.104 52.9568 23.328 52.5301 23.776C52.1035 24.2133 51.8901 24.848 51.8901 25.68V30H49.8901V21.456H51.7941V22.56C52.1248 22.1653 52.5408 21.8667 53.0421 21.664C53.5435 21.4613 54.1088 21.36 54.7381 21.36ZM68.9534 25.776C68.9534 25.9147 68.9427 26.112 68.9214 26.368H62.2174C62.3347 26.9973 62.6387 27.4987 63.1294 27.872C63.6307 28.2347 64.2494 28.416 64.9854 28.416C65.924 28.416 66.6974 28.1067 67.3054 27.488L68.3774 28.72C67.9934 29.1787 67.508 29.5253 66.9214 29.76C66.3347 29.9947 65.6734 30.112 64.9374 30.112C63.9987 30.112 63.172 29.9253 62.4574 29.552C61.7427 29.1787 61.188 28.6613 60.7934 28C60.4094 27.328 60.2174 26.5707 60.2174 25.728C60.2174 24.896 60.404 24.1493 60.7774 23.488C61.1614 22.816 61.6894 22.2933 62.3614 21.92C63.0334 21.5467 63.7907 21.36 64.6334 21.36C65.4654 21.36 66.2067 21.5467 66.8574 21.92C67.5187 22.2827 68.0307 22.8 68.3934 23.472C68.7667 24.1333 68.9534 24.9013 68.9534 25.776ZM64.6334 22.96C63.9934 22.96 63.4494 23.152 63.0014 23.536C62.564 23.9093 62.2974 24.4107 62.2014 25.04H67.0494C66.964 24.4213 66.7027 23.92 66.2654 23.536C65.828 23.152 65.284 22.96 64.6334 22.96ZM74.7945 30.112C73.9092 30.112 73.1145 29.9253 72.4105 29.552C71.7065 29.1787 71.1572 28.6613 70.7625 28C70.3678 27.328 70.1705 26.5707 70.1705 25.728C70.1705 24.8853 70.3678 24.1333 70.7625 23.472C71.1572 22.8107 71.7012 22.2933 72.3945 21.92C73.0985 21.5467 73.8985 21.36 74.7945 21.36C75.6372 21.36 76.3732 21.5307 77.0025 21.872C77.6425 22.2133 78.1225 22.704 78.4425 23.344L76.9065 24.24C76.6612 23.8453 76.3518 23.552 75.9785 23.36C75.6158 23.1573 75.2158 23.056 74.7785 23.056C74.0318 23.056 73.4132 23.3013 72.9225 23.792C72.4318 24.272 72.1865 24.9173 72.1865 25.728C72.1865 26.5387 72.4265 27.1893 72.9065 27.68C73.3972 28.16 74.0212 28.4 74.7785 28.4C75.2158 28.4 75.6158 28.304 75.9785 28.112C76.3518 27.9093 76.6612 27.6107 76.9065 27.216L78.4425 28.112C78.1118 28.752 77.6265 29.248 76.9865 29.6C76.3572 29.9413 75.6265 30.112 74.7945 30.112ZM85.4168 29.536C85.1821 29.728 84.8941 29.872 84.5528 29.968C84.2221 30.064 83.8701 30.112 83.4968 30.112C82.5581 30.112 81.8328 29.8667 81.3207 29.376C80.8088 28.8853 80.5528 28.1707 80.5528 27.232V23.12H79.1448V21.52H80.5528V19.568H82.5528V21.52H84.8408V23.12H82.5528V27.184C82.5528 27.6 82.6541 27.92 82.8568 28.144C83.0594 28.3573 83.3528 28.464 83.7368 28.464C84.1848 28.464 84.5581 28.3467 84.8568 28.112L85.4168 29.536ZM104.812 21.456L101.66 30H99.7399L97.5319 24.112L95.2919 30H93.3719L90.2359 21.456H92.1239L94.3799 27.76L96.7319 21.456H98.4119L100.716 27.792L103.036 21.456H104.812ZM109.185 21.36C110.444 21.36 111.404 21.664 112.065 22.272C112.737 22.8693 113.073 23.776 113.073 24.992V30H111.185V28.96C110.94 29.3333 110.588 29.6213 110.129 29.824C109.681 30.016 109.137 30.112 108.497 30.112C107.857 30.112 107.297 30.0053 106.817 29.792C106.337 29.568 105.964 29.264 105.697 28.88C105.441 28.4853 105.313 28.0427 105.313 27.552C105.313 26.784 105.596 26.1707 106.161 25.712C106.737 25.2427 107.639 25.008 108.865 25.008H111.073V24.88C111.073 24.2827 110.892 23.824 110.529 23.504C110.177 23.184 109.649 23.024 108.945 23.024C108.465 23.024 107.991 23.0987 107.521 23.248C107.063 23.3973 106.673 23.6053 106.353 23.872L105.569 22.416C106.017 22.0747 106.556 21.8133 107.185 21.632C107.815 21.4507 108.481 21.36 109.185 21.36ZM108.913 28.656C109.415 28.656 109.857 28.544 110.241 28.32C110.636 28.0853 110.913 27.7547 111.073 27.328V26.336H109.009C107.857 26.336 107.281 26.7147 107.281 27.472C107.281 27.8347 107.425 28.1227 107.713 28.336C108.001 28.5493 108.401 28.656 108.913 28.656ZM115.64 18.128H117.64V30H115.64V18.128ZM120.265 18.128H122.265V30H120.265V18.128ZM132.922 25.776C132.922 25.9147 132.911 26.112 132.89 26.368H126.186C126.303 26.9973 126.607 27.4987 127.098 27.872C127.599 28.2347 128.218 28.416 128.954 28.416C129.893 28.416 130.666 28.1067 131.274 27.488L132.346 28.72C131.962 29.1787 131.477 29.5253 130.89 29.76C130.303 29.9947 129.642 30.112 128.906 30.112C127.967 30.112 127.141 29.9253 126.426 29.552C125.711 29.1787 125.157 28.6613 124.762 28C124.378 27.328 124.186 26.5707 124.186 25.728C124.186 24.896 124.373 24.1493 124.746 23.488C125.13 22.816 125.658 22.2933 126.33 21.92C127.002 21.5467 127.759 21.36 128.602 21.36C129.434 21.36 130.175 21.5467 130.826 21.92C131.487 22.2827 131.999 22.8 132.362 23.472C132.735 24.1333 132.922 24.9013 132.922 25.776ZM128.602 22.96C127.962 22.96 127.418 23.152 126.97 23.536C126.533 23.9093 126.266 24.4107 126.17 25.04H131.018C130.933 24.4213 130.671 23.92 130.234 23.536C129.797 23.152 129.253 22.96 128.602 22.96ZM139.979 29.536C139.745 29.728 139.457 29.872 139.115 29.968C138.785 30.064 138.433 30.112 138.059 30.112C137.121 30.112 136.395 29.8667 135.883 29.376C135.371 28.8853 135.115 28.1707 135.115 27.232V23.12H133.707V21.52H135.115V19.568H137.115V21.52H139.403V23.12H137.115V27.184C137.115 27.6 137.217 27.92 137.419 28.144C137.622 28.3573 137.915 28.464 138.299 28.464C138.747 28.464 139.121 28.3467 139.419 28.112L139.979 29.536Z" fill="#FFFFFE"/>
</svg>
