<svg width="455" height="84" viewBox="0 0 455 84" fill="none" xmlns="http://www.w3.org/2000/svg">
    <path d="M10.744 64V45.708H38.624V39.18H10.744V25.036H39.644V18.44H3.4V64H10.744ZM55.0311 64.68C62.7151 64.68 68.0871 61.28 69.8551 55.568H70.3311V64H77.0631V43.464C77.0631 35.372 72.2351 29.524 61.4911 29.524C50.7471 29.524 44.3551 35.304 44.3551 42.988V43.26H51.6311V42.988C51.6311 38.024 54.6911 35.984 60.9471 35.984C67.4071 35.984 69.8551 37.956 69.8551 43.532V45.504L54.4871 47.136C47.8231 47.884 43.6071 50.604 43.6071 55.84C43.6071 61.416 48.0271 64.68 55.0311 64.68ZM50.9511 55.364C50.9511 52.712 52.7871 51.828 56.5951 51.352L69.8551 49.856C69.8551 56.52 64.6871 59.376 57.0031 59.376C52.7871 59.376 50.9511 58.084 50.9511 55.364ZM90.9628 64V45.028C90.9628 38.976 93.3428 35.78 99.1228 35.78C104.155 35.78 106.195 38.024 106.195 42.852V45.844H113.471V41.424C113.471 35.032 110.139 29.524 102.455 29.524C95.5188 29.524 91.8468 33.876 90.8268 39.316H90.3508V30.204H83.6188V64H90.9628ZM125.428 64V47.272C125.428 39.792 127.944 36.12 135.22 36.12C141.748 36.12 144.332 38.976 144.332 45.64V64H151.608V47.272C151.608 39.792 154.192 36.12 161.4 36.12C167.928 36.12 170.58 38.976 170.58 45.64V64H177.856V43.668C177.856 35.508 173.436 29.524 164.664 29.524C156.096 29.524 152.288 34.896 151.404 40.676H150.996C150.044 34.216 145.896 29.524 138.212 29.524C129.78 29.524 126.108 34.76 125.224 40.404H124.816V30.204H118.084V64H125.428ZM201.423 64.68C211.487 64.68 218.559 59.716 218.559 52.508V51.896H211.215V52.44C211.215 56.452 208.291 58.764 201.219 58.764C193.399 58.764 190.203 55.296 189.931 48.768H218.627C218.831 47.748 218.899 46.796 218.899 45.572C218.899 35.304 211.759 29.524 201.287 29.524C190.271 29.524 183.063 36.596 183.063 47.136C183.063 58.424 190.339 64.68 201.423 64.68ZM201.151 35.304C208.359 35.304 211.963 38.296 211.963 44.552V44.688H189.999C190.407 38.636 193.671 35.304 201.151 35.304ZM231.744 64V45.028C231.744 38.976 234.124 35.78 239.904 35.78C244.936 35.78 246.976 38.024 246.976 42.852V45.844H254.252V41.424C254.252 35.032 250.92 29.524 243.236 29.524C236.3 29.524 232.628 33.876 231.608 39.316H231.132V30.204H224.4V64H231.744ZM274.845 64.68C284.365 64.68 290.621 60.94 290.621 54.616C290.621 49.04 286.949 46.32 278.925 45.3L271.105 44.212C266.005 43.532 264.645 42.58 264.645 39.928C264.645 36.732 266.821 35.372 273.009 35.372C280.489 35.372 282.529 37.48 282.529 41.492V41.9H289.805V41.696C289.805 33.672 283.549 29.524 273.213 29.524C262.809 29.524 257.437 33.74 257.437 39.656C257.437 45.3 261.313 48.02 267.705 48.836L276.953 50.06C281.781 50.74 283.413 51.624 283.413 54.412C283.413 57.404 281.441 58.764 274.845 58.764C267.773 58.764 265.121 57.336 265.121 52.916V52.372H257.777V52.576C257.777 60.396 263.965 64.68 274.845 64.68Z" fill="#FFFFFE"/>
    <path d="M327.18 64.68C342.616 64.68 351.932 55.432 351.932 41.22C351.932 27.008 342.616 17.76 327.18 17.76C312.084 17.76 302.7 27.008 302.7 41.22C302.7 55.432 312.084 64.68 327.18 64.68ZM327.18 54.888C317.184 54.888 313.512 51.352 313.512 41.22C313.512 31.088 317.184 27.552 327.18 27.552C337.176 27.552 341.052 31.088 341.052 41.22C341.052 51.352 337.176 54.888 327.18 54.888ZM366.58 64V46.796C366.58 41.016 368.892 38.432 375.352 38.432C381.608 38.432 383.852 40.744 383.852 46.184V64H394.052V42.784C394.052 35.236 389.632 29.252 380.316 29.252C371.408 29.252 367.328 34.692 366.444 40.404H365.832V29.932H356.38V64H366.58ZM409.412 64V18.44H399.212V64H409.412ZM421.279 75.56C429.847 75.56 434.403 73.588 437.667 66.448L454.531 29.932H443.175L436.715 45.436L433.995 53.528H433.315L430.459 45.504L423.251 29.932H411.691L428.351 64.136C427.671 65.632 426.583 66.312 424.067 66.312H415.703V75.56H421.279Z" fill="#E58A4C"/>
</svg>
